<svg xmlns="http://www.w3.org/2000/svg" id="mainsvg" width="1674.6479492187502" height="1310.75" viewBox="-10 -10 1522.4072265625 1192.5"><defs><marker id="arrow" viewBox="0 0 10 10" refX="10" refY="5" markerWidth="5" markerHeight="5" orient="auto-start-reverse" fill="black"><path stroke="black" d="M 0 0 L 10 5 L 0 10 z"/></marker><marker id="Many" viewBox="0 0 16 16" refX="15" refY="8" markerWidth="15" markerHeight="15" orient="auto-start-reverse"><path stroke="black" d="M0 8H15M15 15L2 8L15 1" fill="none"/></marker><marker id="ZeroOrOne" viewBox="0 0 16 10" refX="15" refY="5" markerWidth="21" markerHeight="21" orient="auto-start-reverse"><path d="M9 5H16" stroke="black" fill="none"/><circle cx="5" cy="5" r="4.5" stroke="black" fill="#fff"/><path d="M12 0L12 10" stroke="black" fill="none"/></marker><marker id="OneOnlyOne" viewBox="0 0 10 14" refX="10" refY="7" markerWidth="13" markerHeight="13" orient="auto-start-reverse"><path d="M0 7H4M4 7H7M4 7V0M4 7V14M7 7H10M7 7V0M7 7V14" stroke="black" fill="none"/></marker><marker id="OneOrMany" viewBox="0 0 16 16" refX="15" refY="8" markerWidth="15" markerHeight="15" orient="auto-start-reverse"><path stroke="black" d="M2 1V15M2 8L15 15M2 8L15 1M2 8H0M2 8H15" fill="none"/></marker><marker id="ZeroOrMany" viewBox="0 0 25 16" refX="23" refY="8" markerWidth="25" markerHeight="25" orient="auto-start-reverse"><path d="M13 8H27M27 15L14 8L27 1" stroke="black" fill="none"/><path d="M13.5 7.5C13.5 10.7795 10.6254 13.5 7 13.5C3.37461 13.5 0.5 10.7795 0.5 7.5C0.5 4.22054 3.37461 1.5 7 1.5C10.6254 1.5 13.5 4.22054 13.5 7.5Z" stroke="black" fill="#fff"/></marker><marker id="aggregation" viewBox="0 0 10 6" refX="9.3" refY="2.8" markerWidth="23" markerHeight="15" orient="auto-start-reverse"><path stroke="black" fill="#fff" stroke-width="0.7" d="M1.01614 2.82609L5 0.574341L8.98386 2.82609L5 5.07783L1.01614 2.82609Z"/></marker><marker id="composition" viewBox="0 0 10 6" refX="9.7" refY="2.8" markerWidth="18" markerHeight="15" orient="auto-start-reverse"><path stroke="black" fill="black" d="M1.01614 2.82609L5 0.574341L8.98386 2.82609L5 5.07783L1.01614 2.82609Z"/></marker><marker id="implementation" viewBox="0 0 8 10" refX="8" refY="5" markerWidth="20" markerHeight="20" orient="auto-start-reverse"><path stroke="black" fill="#fff" stroke-width="0.7" d="M0.750001 1.10289L7.5 5L0.750001 8.89712L0.750001 1.10289Z"/></marker><marker id="dependency" viewBox="0 0 12 12" refX="11" refY="6" markerWidth="12" markerHeight="11" orient="auto-start-reverse"><path stroke="black" fill="#fff" d="M1 5.93162H10.886M10.886 5.93162L1 0.5M10.886 5.93162L1 11"/></marker><marker id="inheritance" viewBox="0 0 8 10" refX="8" refY="5" markerWidth="20" markerHeight="20" orient="auto-start-reverse"><path stroke="black" fill="#fff" stroke-width="0.7" d="M0.750001 1.10289L7.5 5L0.750001 8.89712L0.750001 1.10289Z"/></marker><marker id="association" viewBox="0 0 12 12" refX="11" refY="6" markerWidth="12" markerHeight="11" orient="auto-start-reverse"><path stroke="black" d="M1 5.93162H10.886M10.886 5.93162L1 0.5M10.886 5.93162L1 11"/></marker><filter id="shadowOLD" x="-50%" y="-50%" width="250%" height="250%"><feDropShadow flood-color="black" flood-opacity="0.3" dx="1" dy="1" stdDeviation="2"> </feDropShadow></filter><filter id="shadow-path" filterUnits="userSpaceOnUse" x="-10" y="-10" width="1522.4072265625px" height="1182.5px"><feDropShadow flood-color="black" flood-opacity="0.1" dx="1" dy="1" stdDeviation="1"> </feDropShadow></filter><filter id="shadow" filterUnits="userSpaceOnUse" x="-10" y="-10" width="1622.4072265625px" height="1282.5px"><feDropShadow flood-color="black" flood-opacity="0.1" dx="1" dy="1" stdDeviation="1"> </feDropShadow></filter></defs><rect x="-10" y="-10" width="1522.4072265625" height="1182.5" fill="#fff"/><g transform="translate(0, 0)"><rect width="134.8515625" height="51.75" stroke="black" fill="white" stroke-width="2" transform="translate(0, 0)" rx="3"/><text fill="black" font-size="16" font-weight="normal" transform="translate(8, 16.9375)" alignment-baseline="middle" font-family="Arial"><tspan x="0" dy="16" font-family="Arial" font-size="16" font-weight="normal">The HTTP Client</tspan></text></g><g transform="translate(292.978515625, 0)"><rect width="147.640625" height="51.75" stroke="black" fill="white" stroke-width="2" transform="translate(0, 0)" rx="3"/><text fill="black" font-size="16" font-weight="normal" transform="translate(8, 16.9375)" alignment-baseline="middle" font-family="Arial"><tspan x="0" dy="16" font-family="Arial" font-size="16" font-weight="normal">Sinatra application</tspan></text></g><g transform="translate(464.619140625, 0)"><rect width="143.171875" height="51.75" stroke="black" fill="white" stroke-width="2" transform="translate(0, 0)" rx="3"/><text fill="black" font-size="16" font-weight="normal" transform="translate(8, 8)" alignment-baseline="middle" font-family="Arial"><tspan x="0" dy="16" font-family="Arial" font-size="16" font-weight="normal">Application Class </tspan><tspan x="0" dy="16" font-family="Arial" font-size="16" font-weight="normal">        (app.rb)</tspan></text></g><g transform="translate(707.8701171875, 0)"><rect width="110.8359375" height="51.75" stroke="black" fill="white" stroke-width="2" transform="translate(0, 0)" rx="3"/><text fill="black" font-size="16" font-weight="normal" transform="translate(8, 8)" alignment-baseline="middle" font-family="Arial"><tspan x="0" dy="16" font-family="Arial" font-size="16" font-weight="normal">POST /artists</tspan><tspan x="0" dy="16" font-family="Arial" font-size="16" font-weight="normal">(route block)</tspan></text></g><g transform="translate(842.7060546875, 0)"><rect width="109.375" height="51.75" stroke="black" fill="white" stroke-width="2" transform="translate(0, 0)" rx="3"/><text fill="black" font-size="16" font-weight="normal" transform="translate(8, 8)" alignment-baseline="middle" font-family="Arial"><tspan x="0" dy="16" font-family="Arial" font-size="16" font-weight="normal">GET /artists </tspan><tspan x="0" dy="16" font-family="Arial" font-size="16" font-weight="normal">(route_block)</tspan></text></g><g transform="translate(1084.4130859375, 0)"><rect width="157.9609375" height="51.75" stroke="black" fill="white" stroke-width="2" transform="translate(0, 0)" rx="3"/><text fill="black" font-size="16" font-weight="normal" transform="translate(8, 8)" alignment-baseline="middle" font-family="Arial"><tspan x="0" dy="16" font-family="Arial" font-size="16" font-weight="normal">  Repository Class  </tspan><tspan x="0" dy="16" font-family="Arial" font-size="16" font-weight="normal">(artist_repository.rb)</tspan></text></g><g transform="translate(1381.5087890625, 0)"><rect width="120.8984375" height="51.75" stroke="black" fill="white" stroke-width="2" transform="translate(0, 0)" rx="3"/><text fill="black" font-size="16" font-weight="normal" transform="translate(8, 8)" alignment-baseline="middle" font-family="Arial"><tspan x="0" dy="16" font-family="Arial" font-size="16" font-weight="normal">    Database</tspan><tspan x="0" dy="16" font-family="Arial" font-size="16" font-weight="normal">(music_library)</tspan></text></g><path d="M 67.42578125,155.125 L 366.798828125 155.125" fill="none" stroke="black" stroke-dasharray="none" stroke-width="2" marker-end="url(#arrow)"/><path d="M 366.798828125,191 L 536.205078125 191" fill="none" stroke="black" stroke-dasharray="none" stroke-width="2" marker-end="url(#arrow)"/><path d="M 536.205078125,226.875 L 763.2880859375 226.875" fill="none" stroke="black" stroke-dasharray="none" stroke-width="2" marker-end="url(#arrow)"/><path d="M 763.2880859375,278.625 L 1163.3935546875 278.625" fill="none" stroke="black" stroke-dasharray="none" stroke-width="2" marker-end="url(#arrow)"/><path d="M 1163.3935546875,286.625 L 1177.3935546875 286.625 L 1177.3935546875 342.25 L 1163.3935546875 342.25" fill="none" stroke="black" stroke-dasharray="none" stroke-width="2" marker-end="url(#arrow)"/><path d="M 1163.3935546875,398 L 1441.9580078125 398" fill="none" stroke="black" stroke-dasharray="none" stroke-width="2" marker-end="url(#arrow)"/><path d="M 1441.9580078125,449.75 L 763.2880859375 449.75" fill="none" stroke="black" stroke-dasharray="none" stroke-width="2" marker-end="url(#arrow)"/><path d="M 763.2880859375,501.5 L 536.205078125 501.5" fill="none" stroke="black" stroke-dasharray="none" stroke-width="2" marker-end="url(#arrow)"/><path d="M 536.205078125,537.375 L 366.798828125 537.375" fill="none" stroke="black" stroke-dasharray="none" stroke-width="2" marker-end="url(#arrow)"/><path d="M 366.798828125,605 L 67.42578125 605" fill="none" stroke="black" stroke-dasharray="none" stroke-width="2" marker-end="url(#arrow)"/><path d="M 67.42578125,672.625 L 366.798828125 672.625" fill="none" stroke="black" stroke-dasharray="none" stroke-width="2" marker-end="url(#arrow)"/><path d="M 366.798828125,708.5 L 536.205078125 708.5" fill="none" stroke="black" stroke-dasharray="none" stroke-width="2" marker-end="url(#arrow)"/><path d="M 536.205078125,744.375 L 897.3935546875 744.375" fill="none" stroke="black" stroke-dasharray="none" stroke-width="2" marker-end="url(#arrow)"/><path d="M 897.3935546875,780.25 L 1163.3935546875 780.25" fill="none" stroke="black" stroke-dasharray="none" stroke-width="2" marker-end="url(#arrow)"/><path d="M 1163.3935546875,832 L 1441.9580078125 832" fill="none" stroke="black" stroke-dasharray="none" stroke-width="2" marker-end="url(#arrow)"/><path d="M 1441.9580078125,883.75 L 1163.3935546875 883.75" fill="none" stroke="black" stroke-dasharray="none" stroke-width="2" marker-end="url(#arrow)"/><path d="M 1163.3935546875,891.75 L 1177.3935546875 891.75 L 1177.3935546875 947.375 L 1163.3935546875 947.375" fill="none" stroke="black" stroke-dasharray="none" stroke-width="2" marker-end="url(#arrow)"/><path d="M 1163.3935546875,987.25 L 897.3935546875 987.25" fill="none" stroke="black" stroke-dasharray="none" stroke-width="2" marker-end="url(#arrow)"/><path d="M 897.3935546875,995.25 L 911.3935546875 995.25 L 911.3935546875 1019.125 L 897.3935546875 1019.125" fill="none" stroke="black" stroke-dasharray="none" stroke-width="2" marker-end="url(#arrow)"/><path d="M 897.3935546875,1059 L 366.798828125 1059" fill="none" stroke="black" stroke-dasharray="none" stroke-width="2" marker-end="url(#arrow)"/><path d="M 366.798828125,1142.5 L 67.42578125 1142.5" fill="none" stroke="black" stroke-dasharray="none" stroke-width="2" marker-end="url(#arrow)"/><path d="M 67.42578125,51.75 L 67.42578125 1162.5" fill="none" stroke="black" stroke-dasharray="none" stroke-width="2"/><path d="M 366.798828125,51.75 L 366.798828125 1162.5" fill="none" stroke="black" stroke-dasharray="none" stroke-width="2"/><path d="M 536.205078125,51.75 L 536.205078125 1162.5" fill="none" stroke="black" stroke-dasharray="none" stroke-width="2"/><path d="M 763.2880859375,51.75 L 763.2880859375 1162.5" fill="none" stroke="black" stroke-dasharray="none" stroke-width="2"/><path d="M 897.3935546875,51.75 L 897.3935546875 1162.5" fill="none" stroke="black" stroke-dasharray="none" stroke-width="2"/><path d="M 1163.3935546875,51.75 L 1163.3935546875 1162.5" fill="none" stroke="black" stroke-dasharray="none" stroke-width="2"/><path d="M 1441.9580078125,51.75 L 1441.9580078125 1162.5" fill="none" stroke="black" stroke-dasharray="none" stroke-width="2"/><g transform="translate(91.42578125, 63.75)"><rect width="251.373046875" height="87.375" stroke="none" fill="white" stroke-width="0" transform="translate(0, 0)" rx="2"/><text fill="black" font-size="14" font-weight="normal" transform="translate(4, 4)" alignment-baseline="middle" font-family="Arial"><tspan x="0" dy="14" font-family="Arial" font-size="14" font-weight="normal"> http request:</tspan><tspan x="0" dy="14" font-family="Arial" font-size="14" font-weight="normal">    method: POST</tspan><tspan x="0" dy="14" font-family="Arial" font-size="14" font-weight="normal">    path: /artists</tspan><tspan x="0" dy="14" font-family="Arial" font-size="14" font-weight="normal">    body(params): </tspan><tspan x="0" dy="14" font-family="Arial" font-size="14" font-weight="normal">        name: 'Wild nothing', genre: 'Indie'</tspan></text></g><g transform="translate(395.36767578125, 163.125)"><rect width="112.2685546875" height="23.875" stroke="none" fill="white" stroke-width="0" transform="translate(0, 0)" rx="2"/><text fill="black" font-size="14" font-weight="normal" transform="translate(4, 4)" alignment-baseline="middle" font-family="Arial"><tspan x="0" dy="14" font-family="Arial" font-size="14" font-weight="normal">forwards request</tspan></text></g><g transform="translate(560.205078125, 199)"><rect width="179.0830078125" height="23.875" stroke="none" fill="white" stroke-width="0" transform="translate(0, 0)" rx="2"/><text fill="black" font-size="14" font-weight="normal" transform="translate(4, 4)" alignment-baseline="middle" font-family="Arial"><tspan x="0" dy="14" font-family="Arial" font-size="14" font-weight="normal">calls the 'POST' route block</tspan></text></g><g transform="translate(837.15869140625, 234.875)"><rect width="252.3642578125" height="39.75" stroke="none" fill="white" stroke-width="0" transform="translate(0, 0)" rx="2"/><text fill="black" font-size="14" font-weight="normal" transform="translate(4, 4)" alignment-baseline="middle" font-family="Arial"><tspan x="0" dy="14" font-family="Arial" font-size="14" font-weight="normal">calls the 'create' method in artist repo </tspan><tspan x="0" dy="14" font-family="Arial" font-size="14" font-weight="normal">with the params definied in http request</tspan></text></g><g transform="translate(1183.3935546875, 286.625)"><rect width="203.3095703125" height="55.625" stroke="none" fill="white" stroke-width="0" transform="translate(0, 0)" rx="2"/><text fill="black" font-size="14" font-weight="normal" transform="translate(4, 4)" alignment-baseline="middle" font-family="Arial"><tspan x="0" dy="14" font-family="Arial" font-size="14" font-weight="normal">creates a new artist object with:</tspan><tspan x="0" dy="14" font-family="Arial" font-size="14" font-weight="normal">    name: Wild nothing</tspan><tspan x="0" dy="14" font-family="Arial" font-size="14" font-weight="normal">    genre: Indie</tspan></text></g><g transform="translate(1187.3935546875, 354.25)"><rect width="230.564453125" height="39.75" stroke="none" fill="white" stroke-width="0" transform="translate(0, 0)" rx="2"/><text fill="black" font-size="14" font-weight="normal" transform="translate(4, 4)" alignment-baseline="middle" font-family="Arial"><tspan x="0" dy="14" font-family="Arial" font-size="14" font-weight="normal">enters the new Artist object into the </tspan><tspan x="0" dy="14" font-family="Arial" font-size="14" font-weight="normal">'artists' table in the DB</tspan></text></g><g transform="translate(1035.59228515625, 406)"><rect width="134.0615234375" height="39.75" stroke="none" fill="white" stroke-width="0" transform="translate(0, 0)" rx="2"/><text fill="black" font-size="14" font-weight="normal" transform="translate(4, 4)" alignment-baseline="middle" font-family="Arial"><tspan x="0" dy="14" font-family="Arial" font-size="14" font-weight="normal">artist object created </tspan><tspan x="0" dy="14" font-family="Arial" font-size="14" font-weight="normal">(nothing returned)</tspan></text></g><g transform="translate(586.21923828125, 457.75)"><rect width="127.0546875" height="39.75" stroke="none" fill="white" stroke-width="0" transform="translate(0, 0)" rx="2"/><text fill="black" font-size="14" font-weight="normal" transform="translate(4, 4)" alignment-baseline="middle" font-family="Arial"><tspan x="0" dy="14" font-family="Arial" font-size="14" font-weight="normal">sends response on</tspan><tspan x="0" dy="14" font-family="Arial" font-size="14" font-weight="normal">successful creation</tspan></text></g><g transform="translate(398.08154296875, 509.5)"><rect width="106.8408203125" height="23.875" stroke="none" fill="white" stroke-width="0" transform="translate(0, 0)" rx="2"/><text fill="black" font-size="14" font-weight="normal" transform="translate(4, 4)" alignment-baseline="middle" font-family="Arial"><tspan x="0" dy="14" font-family="Arial" font-size="14" font-weight="normal">sends response</tspan></text></g><g transform="translate(154.357421875, 545.375)"><rect width="125.509765625" height="55.625" stroke="none" fill="white" stroke-width="0" transform="translate(0, 0)" rx="2"/><text fill="black" font-size="14" font-weight="normal" transform="translate(4, 4)" alignment-baseline="middle" font-family="Arial"><tspan x="0" dy="14" font-family="Arial" font-size="14" font-weight="normal">http response: </tspan><tspan x="0" dy="14" font-family="Arial" font-size="14" font-weight="normal">    status: 200 okay</tspan><tspan x="0" dy="14" font-family="Arial" font-size="14" font-weight="normal">    body: (empty)</tspan></text></g><g transform="translate(163.70556640625, 613)"><rect width="106.8134765625" height="55.625" stroke="none" fill="white" stroke-width="0" transform="translate(0, 0)" rx="2"/><text fill="black" font-size="14" font-weight="normal" transform="translate(4, 4)" alignment-baseline="middle" font-family="Arial"><tspan x="0" dy="14" font-family="Arial" font-size="14" font-weight="normal"> http request:</tspan><tspan x="0" dy="14" font-family="Arial" font-size="14" font-weight="normal">    method: GET</tspan><tspan x="0" dy="14" font-family="Arial" font-size="14" font-weight="normal">    path: /artists </tspan></text></g><g transform="translate(395.36767578125, 680.625)"><rect width="112.2685546875" height="23.875" stroke="none" fill="white" stroke-width="0" transform="translate(0, 0)" rx="2"/><text fill="black" font-size="14" font-weight="normal" transform="translate(4, 4)" alignment-baseline="middle" font-family="Arial"><tspan x="0" dy="14" font-family="Arial" font-size="14" font-weight="normal">forwards request</tspan></text></g><g transform="translate(631.9267578125, 716.5)"><rect width="169.7451171875" height="23.875" stroke="none" fill="white" stroke-width="0" transform="translate(0, 0)" rx="2"/><text fill="black" font-size="14" font-weight="normal" transform="translate(4, 4)" alignment-baseline="middle" font-family="Arial"><tspan x="0" dy="14" font-family="Arial" font-size="14" font-weight="normal">calls the 'GET' route block</tspan></text></g><g transform="translate(921.3935546875, 752.375)"><rect width="218" height="23.875" stroke="none" fill="white" stroke-width="0" transform="translate(0, 0)" rx="2"/><text fill="black" font-size="14" font-weight="normal" transform="translate(4, 4)" alignment-baseline="middle" font-family="Arial"><tspan x="0" dy="14" font-family="Arial" font-size="14" font-weight="normal"> calls the 'all' method in artist repo</tspan></text></g><g transform="translate(1216.2001953125, 788.25)"><rect width="172.951171875" height="39.75" stroke="none" fill="white" stroke-width="0" transform="translate(0, 0)" rx="2"/><text fill="black" font-size="14" font-weight="normal" transform="translate(4, 4)" alignment-baseline="middle" font-family="Arial"><tspan x="0" dy="14" font-family="Arial" font-size="14" font-weight="normal"> retrives all Artist objects </tspan><tspan x="0" dy="14" font-family="Arial" font-size="14" font-weight="normal">from the artists table in DB</tspan></text></g><g transform="translate(1210.74853515625, 840)"><rect width="183.8544921875" height="39.75" stroke="none" fill="white" stroke-width="0" transform="translate(0, 0)" rx="2"/><text fill="black" font-size="14" font-weight="normal" transform="translate(4, 4)" alignment-baseline="middle" font-family="Arial"><tspan x="0" dy="14" font-family="Arial" font-size="14" font-weight="normal">returns all artist table entries</tspan><tspan x="0" dy="14" font-family="Arial" font-size="14" font-weight="normal">as an array of hashes</tspan></text></g><g transform="translate(1183.3935546875, 891.75)"><rect width="266.3779296875" height="55.625" stroke="none" fill="white" stroke-width="0" transform="translate(0, 0)" rx="2"/><text fill="black" font-size="14" font-weight="normal" transform="translate(4, 4)" alignment-baseline="middle" font-family="Arial"><tspan x="0" dy="14" font-family="Arial" font-size="14" font-weight="normal">Creates a model object for each hash </tspan><tspan x="0" dy="14" font-family="Arial" font-size="14" font-weight="normal">with the data provided in artists table and </tspan><tspan x="0" dy="14" font-family="Arial" font-size="14" font-weight="normal">returns an array of them all</tspan></text></g><g transform="translate(927.18701171875, 959.375)"><rect width="206.4130859375" height="23.875" stroke="none" fill="white" stroke-width="0" transform="translate(0, 0)" rx="2"/><text fill="black" font-size="14" font-weight="normal" transform="translate(4, 4)" alignment-baseline="middle" font-family="Arial"><tspan x="0" dy="14" font-family="Arial" font-size="14" font-weight="normal">returns an array of Artist objects</tspan></text></g><g transform="translate(917.3935546875, 995.25)"><rect width="258.55078125" height="23.875" stroke="none" fill="white" stroke-width="0" transform="translate(0, 0)" rx="2"/><text fill="black" font-size="14" font-weight="normal" transform="translate(4, 4)" alignment-baseline="middle" font-family="Arial"><tspan x="0" dy="14" font-family="Arial" font-size="14" font-weight="normal">returns all artist names as a single string</tspan></text></g><g transform="translate(578.67578125, 1031.125)"><rect width="106.8408203125" height="23.875" stroke="none" fill="white" stroke-width="0" transform="translate(0, 0)" rx="2"/><text fill="black" font-size="14" font-weight="normal" transform="translate(4, 4)" alignment-baseline="middle" font-family="Arial"><tspan x="0" dy="14" font-family="Arial" font-size="14" font-weight="normal">sends response</tspan></text></g><g transform="translate(100.12451171875, 1067)"><rect width="233.9755859375" height="71.5" stroke="none" fill="white" stroke-width="0" transform="translate(0, 0)" rx="2"/><text fill="black" font-size="14" font-weight="normal" transform="translate(4, 4)" alignment-baseline="middle" font-family="Arial"><tspan x="0" dy="14" font-family="Arial" font-size="14" font-weight="normal">http response: </tspan><tspan x="0" dy="14" font-family="Arial" font-size="14" font-weight="normal">    status: 200 okay</tspan><tspan x="0" dy="14" font-family="Arial" font-size="14" font-weight="normal">    body: 'Pixies, ABBA, Taylor Swift, </tspan><tspan x="0" dy="14" font-family="Arial" font-size="14" font-weight="normal">        Nina Simone, Wild nothing'</tspan></text></g></svg>